HIERARCHY
ROOT hip
{
  OFFSET -9.34631 82.693 -19.9933
  CHANNELS 6 Xposition Yposition Zposition Zrotation Xrotation Yrotation
  JOINT abdomen
  {
    OFFSET 0 20.6881 -0.73152
    CHANNELS 3 Zrotation Xrotation Yrotation
    JOINT chest
    {
      OFFSET 0 11.7043 -0.48768
      CHANNELS 3 Zrotation Xrotation Yrotation
      JOINT neck
      {
        OFFSET 0 22.1894 -2.19456
        CHANNELS 3 Zrotation Xrotation Yrotation
        JOINT head
        {
          OFFSET -0.24384 7.07133 1.2192
          CHANNELS 3 Zrotation Xrotation Yrotation
          JOINT leftEye
          {
            OFFSET 4.14528 8.04674 8.04672
            CHANNELS 3 Zrotation Xrotation Yrotation
            End Site
            {
              OFFSET 1 0 0
            }
          }
          JOINT rightEye
          {
            OFFSET -3.6576 8.04674 8.04672
            CHANNELS 3 Zrotation Xrotation Yrotation
            End Site
            {
              OFFSET 1 0 0
            }
          }
        }
      }
      JOINT rCollar
      {
        OFFSET -2.68224 19.2634 -4.8768
        CHANNELS 3 Zrotation Xrotation Yrotation
        JOINT rShldr
        {
          OFFSET -8.77824 -1.95073 1.46304
          CHANNELS 3 Zrotation Xrotation Yrotation
          JOINT rForeArm
          {
            OFFSET -28.1742 -1.7115 0.48768
            CHANNELS 3 Zrotation Xrotation Yrotation
            JOINT rHand
            {
              OFFSET -22.5879 0.773209 7.07136
              CHANNELS 3 Zrotation Xrotation Yrotation
              JOINT rThumb1
              {
                OFFSET -1.2192 -0.487915 3.41376
                CHANNELS 3 Zrotation Xrotation Yrotation
                JOINT rThumb2
                {
                  OFFSET -3.37035 -0.52449 3.41376
                  CHANNELS 3 Zrotation Xrotation Yrotation
                  End Site
                  {
                    OFFSET -1.78271 -1.18214 1.43049
                  }
                }
              }
              JOINT rIndex1
              {
                OFFSET -7.75947 0.938293 5.60832
                CHANNELS 3 Zrotation Xrotation Yrotation
                JOINT rIndex2
                {
                  OFFSET -2.54057 -0.884171 1.56538
                  CHANNELS 3 Zrotation Xrotation Yrotation
                  End Site
                  {
                    OFFSET -1.62519 -0.234802 1.16502
                  }
                }
              }
              JOINT rMid1
              {
                OFFSET -8.24714 1.18213 3.41376
                CHANNELS 3 Zrotation Xrotation Yrotation
                JOINT rMid2
                {
                  OFFSET -3.10165 -0.590103 1.0647
                  CHANNELS 3 Zrotation Xrotation Yrotation
                  End Site
                  {
                    OFFSET -2.48547 -0.328903 0.83742
                  }
                }
              }
              JOINT rRing1
              {
                OFFSET -8.82822 0.546677 1.51678
                CHANNELS 3 Zrotation Xrotation Yrotation
                JOINT rRing2
                {
                  OFFSET -2.60934 -0.819778 -0.0198488
                  CHANNELS 3 Zrotation Xrotation Yrotation
                  End Site
                  {
                    OFFSET -2.33842 -0.294052 0.168128
                  }
                }
              }
              JOINT rPinky1
              {
                OFFSET -8.27202 -0.0477905 -0.4584
                CHANNELS 3 Zrotation Xrotation Yrotation
                JOINT rPinky2
                {
                  OFFSET -1.82734 -0.647385 -0.700984
                  CHANNELS 3 Zrotation Xrotation Yrotation
                  End Site
                  {
                    OFFSET -1.69225 -0.51767 -0.607171
                  }
                }
              }
            }
          }
        }
      }
      JOINT lCollar
      {
        OFFSET 2.68224 19.2634 -4.8768
        CHANNELS 3 Zrotation Xrotation Yrotation
        JOINT lShldr
        {
          OFFSET 8.77824 -1.95073 1.46304
          CHANNELS 3 Zrotation Xrotation Yrotation
          JOINT lForeArm
          {
            OFFSET 28.1742 -1.7115 0.48768
            CHANNELS 3 Zrotation Xrotation Yrotation
            JOINT lHand
            {
              OFFSET 22.5879 0.773209 7.07136
              CHANNELS 3 Zrotation Xrotation Yrotation
              JOINT lThumb1
              {
                OFFSET 1.2192 -0.487915 3.41376
                CHANNELS 3 Zrotation Xrotation Yrotation
                JOINT lThumb2
                {
                  OFFSET 3.37035 -0.52449 3.41376
                  CHANNELS 3 Zrotation Xrotation Yrotation
                  End Site
                  {
                    OFFSET 1.78271 -1.18214 1.43049
                  }
                }
              }
              JOINT lIndex1
              {
                OFFSET 7.75947 0.938293 5.60832
                CHANNELS 3 Zrotation Xrotation Yrotation
                JOINT lIndex2
                {
                  OFFSET 2.54057 -0.884171 1.56538
                  CHANNELS 3 Zrotation Xrotation Yrotation
                  End Site
                  {
                    OFFSET 1.62519 -0.234802 1.16502
                  }
                }
              }
              JOINT lMid1
              {
                OFFSET 8.24714 1.18213 3.41376
                CHANNELS 3 Zrotation Xrotation Yrotation
                JOINT lMid2
                {
                  OFFSET 3.10165 -0.590103 1.0647
                  CHANNELS 3 Zrotation Xrotation Yrotation
                  End Site
                  {
                    OFFSET 2.48547 -0.328903 0.83742
                  }
                }
              }
              JOINT lRing1
              {
                OFFSET 8.82822 0.546677 1.51678
                CHANNELS 3 Zrotation Xrotation Yrotation
                JOINT lRing2
                {
                  OFFSET 2.60934 -0.819778 -0.0198488
                  CHANNELS 3 Zrotation Xrotation Yrotation
                  End Site
                  {
                    OFFSET 2.33842 -0.294052 0.168128
                  }
                }
              }
              JOINT lPinky1
              {
                OFFSET 8.27202 -0.0477905 -0.4584
                CHANNELS 3 Zrotation Xrotation Yrotation
                JOINT lPinky2
                {
                  OFFSET 1.82734 -0.647385 -0.700984
                  CHANNELS 3 Zrotation Xrotation Yrotation
                  End Site
                  {
                    OFFSET 1.69225 -0.51767 -0.607171
                  }
                }
              }
            }
          }
        }
      }
    }
  }
  JOINT rButtock
  {
    OFFSET -8.77824 4.35084 1.2192
    CHANNELS 3 Zrotation Xrotation Yrotation
    JOINT rThigh
    {
      OFFSET 0 -1.70687 -2.19456
      CHANNELS 3 Zrotation Xrotation Yrotation
      JOINT rShin
      {
        OFFSET 0 -36.8199 0.73152
        CHANNELS 3 Zrotation Xrotation Yrotation
        JOINT rFoot
        {
          OFFSET 0.73152 -45.1104 -5.12064
          CHANNELS 3 Zrotation Xrotation Yrotation
          End Site
          {
            OFFSET -1.1221 -3.69964 12.103
          }
        }
      }
    }
  }
  JOINT lButtock
  {
    OFFSET 8.77824 4.35084 1.2192
    CHANNELS 3 Zrotation Xrotation Yrotation
    JOINT lThigh
    {
      OFFSET 0 -1.70687 -2.19456
      CHANNELS 3 Zrotation Xrotation Yrotation
      JOINT lShin
      {
        OFFSET 0 -36.8199 0.73152
        CHANNELS 3 Zrotation Xrotation Yrotation
        JOINT lFoot
        {
          OFFSET -0.73152 -45.1104 -5.12064
          CHANNELS 3 Zrotation Xrotation Yrotation
          End Site
          {
            OFFSET 1.1221 -3.69964 12.103
          }
        }
      }
    }
  }
}
MOTION
Frames:	9
Frame Time:	0.00833333
-5.4494 83.127 -10.1171 -5.2815 3.19581 81.1447 5.29631 18.5029 4.55193 -2.10418 -5.28491 1.34778 1.15031 16.8458 -2.6656 1.52893 -18.2987 -5.17666 -0 0 0 -0 0 0 4.9018e-014 3.70417e-013 -1.05974e-013 76.0623 27.4944 -6.87069 -23.7716 -18.6832 48.8513 -0.530564 20.1994 2.96472 -3.48038e-011 4.87824e-011 1.52691e-010 -5.57283e-011 8.59465e-011 2.62979e-010 -3.48022e-011 4.87892e-011 1.52681e-010 7.73091 5.47488 0.417314 -3.48046e-011 4.87848e-011 1.52697e-010 2.90554 0.965183 0.102902 -3.47947e-011 4.87864e-011 1.52693e-010 10.2786 0.731801 0.0259123 -3.48041e-011 4.87894e-011 1.527e-010 2.22167 -0.733487 -0.20892 4.89818e-014 3.7041e-013 -1.062e-013 -36.2018 -20.7629 30.2277 -8.29827 -58.8867 138.248 0.0111458 -2.94555 0.414374 2.59761e-010 9.04432e-012 8.53175e-010 4.44489e-010 1.69953e-011 1.47794e-009 2.59758e-010 9.04521e-012 8.53181e-010 -7.73091 5.47488 -0.417314 2.59761e-010 9.04426e-012 8.53171e-010 -2.90554 0.965183 -0.102902 2.59753e-010 9.04283e-012 8.53176e-010 -10.2786 0.731801 -0.0259123 2.59765e-010 9.04383e-012 8.53167e-010 -2.22167 -0.733487 0.20892 -2.03217e-016 0 -3.88251e-019 1.82276 -39.3148 -2.78477 -0.587301 49.2484 0.883432 0.280273 -4.60956 4.17518 2.03217e-016 0 3.88251e-019 -1.81319 -22.1752 1.21995 0.294152 38.2654 -0.671213 -0.398895 2.94033 -19.0443 
-5.88736 83.0609 -10.2184 -5.82851 3.28678 80.401 5.49643 17.7461 4.22849 -2.2247 -5.13207 1.26044 1.14151 16.3855 -2.67717 1.61527 -17.9706 -5.19781 -0 0 0 -0 0 0 3.20495e-014 2.07764e-013 -1.80077e-013 76.6885 26.7522 -7.03698 -23.3225 -17.8887 47.4849 -0.542768 20.3662 2.99233 6.89098e-010 -7.83502e-011 3.80092e-010 1.19893e-009 -1.35168e-010 6.43525e-010 6.89097e-010 -7.8344e-011 3.80083e-010 7.73091 5.47488 0.417314 6.89097e-010 -7.83465e-011 3.80097e-010 2.90554 0.965183 0.102902 6.89107e-010 -7.83446e-011 3.80095e-010 10.2786 0.731801 0.0259123 6.89097e-010 -7.83423e-011 3.80101e-010 2.22167 -0.733487 -0.20892 3.19334e-014 2.07757e-013 -1.8027e-013 -35.9652 -21.6377 30.7095 -8.80458 -58.7417 137.317 0.0120369 -3.02102 0.425038 9.06547e-010 6.45865e-011 8.43548e-010 1.56255e-009 1.12451e-010 1.46348e-009 9.06544e-010 6.45881e-011 8.43548e-010 -7.73091 5.47488 -0.417314 9.06548e-010 6.4588e-011 8.43544e-010 -2.90554 0.965183 -0.102902 9.06539e-010 6.45873e-011 8.43548e-010 -10.2786 0.731801 -0.0259123 9.06552e-010 6.45892e-011 8.43542e-010 -2.22167 -0.733487 0.20892 -2.03217e-016 0 -3.88251e-019 2.07962 -38.1965 -3.44014 -0.539116 47.803 0.828064 0.195004 -4.99159 3.73309 2.03217e-016 0 3.88251e-019 -0.987224 -23.7699 2.43312 0.333997 40.281 -0.708161 -0.270948 3.8047 -20.3091 
-6.35347 82.814 -10.3302 -6.27625 3.37984 79.5603 5.7497 17.1284 3.91729 -2.30951 -5.03672 1.17975 1.09671 15.9573 -2.7241 1.65732 -17.7224 -5.29021 -0 0 0 -0 0 0 7.28107e-015 -1.53476e-014 -2.23715e-013 77.236 26.0473 -7.17097 -22.8189 -17.0399 46.0428 -0.534838 20.2231 2.96942 1.3985e-009 -2.26962e-010 5.83543e-010 2.42797e-009 -3.93343e-010 9.83451e-010 1.39849e-009 -2.26956e-010 5.83534e-010 7.73091 5.47488 0.417314 1.3985e-009 -2.26957e-010 5.83547e-010 2.90554 0.965183 0.102902 1.39851e-009 -2.26955e-010 5.83546e-010 10.2786 0.731801 0.0259123 1.3985e-009 -2.26953e-010 5.83551e-010 2.22167 -0.733487 -0.20892 7.09367e-015 -1.53536e-014 -2.23878e-013 -35.4108 -22.5617 31.059 -9.35827 -58.5768 136.292 0.0135783 -3.23566 0.455288 1.55656e-009 1.10999e-010 6.50995e-010 2.68789e-009 1.91501e-010 1.13226e-009 1.55656e-009 1.11002e-010 6.5099e-010 -7.73091 5.47488 -0.417314 1.55656e-009 1.11002e-010 6.50991e-010 -2.90554 0.965183 -0.102902 1.55655e-009 1.11002e-010 6.50994e-010 -10.2786 0.731801 -0.0259123 1.55656e-009 1.11005e-010 6.50991e-010 -2.22167 -0.733487 0.20892 -2.03217e-016 0 -3.88251e-019 2.40475 -37.1052 -3.92138 -0.492623 46.2903 0.77266 0.0879577 -5.74859 3.09167 2.03217e-016 0 3.88251e-019 -0.0964853 -25.6735 3.50348 0.400642 43.1213 -0.768148 -0.266946 4.27067 -21.247 
-6.57515 82.2094 -10.6281 -6.52789 3.50949 78.7295 6.12405 16.7203 3.72299 -2.36444 -5.07761 1.13921 0.928471 15.6422 -2.80611 1.67944 -17.4523 -5.45214 -0 0 0 -0 0 0 -1.42027e-014 -2.0584e-013 -1.90734e-013 77.6452 25.5823 -7.38289 -22.2948 -16.2065 44.594 -0.495017 19.5894 2.86685 1.67754e-009 -3.41503e-010 7.08691e-010 2.91173e-009 -5.91631e-010 1.19588e-009 1.67754e-009 -3.41499e-010 7.08682e-010 7.73091 5.47488 0.417314 1.67754e-009 -3.41498e-010 7.08694e-010 2.90554 0.965183 0.102902 1.67755e-009 -3.41496e-010 7.08694e-010 10.2786 0.731801 0.0259123 1.67754e-009 -3.41495e-010 7.08698e-010 2.22167 -0.733487 -0.20892 -1.44232e-014 -2.05845e-013 -1.90883e-013 -34.7388 -23.3121 31.1854 -9.96069 -58.3919 135.167 0.01574 -3.57948 0.503725 1.90025e-009 1.1277e-010 2.48271e-010 3.28606e-009 1.92684e-010 4.36034e-010 1.90025e-009 1.12772e-010 2.48265e-010 -7.73091 5.47488 -0.417314 1.90025e-009 1.12772e-010 2.48268e-010 -2.90554 0.965183 -0.102902 1.90024e-009 1.12773e-010 2.48269e-010 -10.2786 0.731801 -0.0259123 1.90026e-009 1.12776e-010 2.48268e-010 -2.22167 -0.733487 0.20892 -2.03217e-016 0 -3.88251e-019 2.88577 -36.1673 -4.0676 -0.460168 45.1886 0.732518 -0.0534289 -6.78727 2.2547 2.03217e-016 0 3.88251e-019 0.707332 -27.766 4.04672 0.512853 46.9623 -0.868405 -0.532457 3.94246 -21.1742 
-6.81446 81.492 -10.9126 -6.59347 3.66462 77.8629 6.56049 16.4872 3.69185 -2.35272 -5.31243 1.1492 0.543426 15.47 -2.94963 1.72196 -17.1226 -5.72841 -0 0 0 -0 0 0 -3.37897e-014 -3.66809e-013 -1.11141e-014 77.9441 25.4997 -7.81233 -21.7767 -15.4181 43.2172 -0.397756 17.8847 2.59603 1.24814e-009 -3.50713e-010 6.7203e-010 2.168e-009 -6.06084e-010 1.14182e-009 1.24813e-009 -3.50711e-010 6.72018e-010 7.73091 5.47488 0.417314 1.24814e-009 -3.5071e-010 6.72032e-010 2.90554 0.965183 0.102902 1.24815e-009 -3.50709e-010 6.7203e-010 10.2786 0.731801 0.0259123 1.24813e-009 -3.50707e-010 6.72033e-010 2.22167 -0.733487 -0.20892 -3.3979e-014 -3.66811e-013 -1.12764e-014 -33.7928 -23.8263 30.9752 -10.6756 -58.164 133.817 0.0198525 -4.13265 0.581731 1.6798e-009 3.49537e-011 -5.58102e-010 2.91343e-009 5.5115e-011 -9.61443e-010 1.6798e-009 3.49544e-011 -5.58106e-010 -7.73091 5.47488 -0.417314 1.6798e-009 3.4954e-011 -5.58105e-010 -2.90554 0.965183 -0.102902 1.67979e-009 3.49544e-011 -5.58104e-010 -10.2786 0.731801 -0.0259123 1.67981e-009 3.49578e-011 -5.58106e-010 -2.22167 -0.733487 0.20892 -2.03217e-016 0 -3.88251e-019 3.48885 -35.5201 -3.69735 -0.44463 44.713 0.713236 -0.292047 -8.38889 1.01037 2.03217e-016 0 3.88251e-019 1.21846 -30.1564 3.82323 0.712418 52.2075 -1.04079 -1.23835 2.19057 -19.5651 
-7.08767 80.912 -11.1055 -6.51116 3.83714 76.9288 7.05352 16.4099 3.76004 -2.28377 -5.68694 1.19143 0.0114848 15.3944 -3.14588 1.76346 -16.7906 -6.10401 -0 0 0 -0 0 0 -5.59439e-014 -5.38589e-013 2.71291e-013 78.1565 25.6599 -8.36598 -21.243 -14.6385 41.8519 -0.284906 15.3812 2.21173 3.87798e-010 -3.03035e-010 5.25551e-010 6.77368e-010 -5.21107e-010 9.06215e-010 3.87798e-010 -3.03035e-010 5.25537e-010 7.73091 5.47488 0.417314 3.87799e-010 -3.03034e-010 5.25551e-010 2.90554 0.965183 0.102902 3.87807e-010 -3.03035e-010 5.25547e-010 10.2786 0.731801 0.0259123 3.87791e-010 -3.03033e-010 5.25551e-010 2.22167 -0.733487 -0.20892 -5.60594e-014 -5.38589e-013 2.71099e-013 -32.5498 -24.2287 30.4974 -11.471 -57.8906 132.3 0.0275433 -4.87285 0.686363 1.11873e-009 -9.50171e-011 -1.69152e-009 1.95543e-009 -1.73596e-010 -2.92665e-009 1.11872e-009 -9.50185e-011 -1.69152e-009 -7.73091 5.47488 -0.417314 1.11873e-009 -9.50208e-011 -1.69153e-009 -2.90554 0.965183 -0.102902 1.11872e-009 -9.50206e-011 -1.69152e-009 -10.2786 0.731801 -0.0259123 1.11873e-009 -9.50174e-011 -1.69153e-009 -2.22167 -0.733487 0.20892 -2.03217e-016 0 -3.88251e-019 4.15824 -35.0586 -2.95863 -0.437381 44.5793 0.704262 -0.686759 -10.4973 -0.584965 2.03217e-016 0 3.88251e-019 1.45778 -32.8676 3.03339 1.04665 58.6434 -1.33294 -2.06844 -0.668939 -16.9414 
-7.35987 80.3506 -11.2806 -6.2209 4.10844 76.0627 7.75211 16.582 3.86689 -2.23266 -6.11203 1.25642 -0.509027 15.3832 -3.34188 1.73386 -16.4981 -6.48811 -0 0 0 -0 0 0 -7.41944e-014 -6.83966e-013 5.31831e-013 78.2099 25.8448 -8.80146 -20.6556 -13.8362 40.3547 -0.213265 13.1788 1.88473 -4.85884e-010 -3.22471e-010 4.18151e-010 -8.35652e-010 -5.52277e-010 7.38092e-010 -4.85882e-010 -3.22474e-010 4.18133e-010 7.73091 5.47488 0.417314 -4.85882e-010 -3.22473e-010 4.18149e-010 2.90554 0.965183 0.102902 -4.85876e-010 -3.22475e-010 4.18143e-010 10.2786 0.731801 0.0259123 -4.85893e-010 -3.22473e-010 4.18147e-010 2.22167 -0.733487 -0.20892 -7.42363e-014 -6.83962e-013 5.31605e-013 -31.4101 -24.5774 29.9298 -12.2131 -57.6117 130.869 0.0380469 -5.63639 0.794637 6.29487e-010 -2.19093e-010 -2.77411e-009 1.1211e-009 -3.92161e-010 -4.80317e-009 6.29482e-010 -2.19096e-010 -2.77411e-009 -7.73091 5.47488 -0.417314 6.29488e-010 -2.191e-010 -2.77412e-009 -2.90554 0.965183 -0.102902 6.2948e-010 -2.191e-010 -2.77412e-009 -10.2786 0.731801 -0.0259123 6.29496e-010 -2.19098e-010 -2.77412e-009 -2.22167 -0.733487 0.20892 -2.03217e-016 0 -3.88251e-019 4.94626 -34.5486 -2.18609 -0.431449 44.5167 0.694923 -1.16738 -12.5133 -2.11831 2.03217e-016 0 3.88251e-019 1.59007 -35.6539 1.93657 1.58745 65.521 -1.83035 -2.58008 -3.54773 -14.1413 
-7.63183 79.8875 -11.5338 -5.6589 4.58446 75.4104 8.80399 17.0972 3.95234 -2.27493 -6.49858 1.33459 -0.860026 15.4042 -3.48463 1.56005 -16.2867 -6.79065 -0 0 0 -0 0 0 -8.20706e-014 -7.65722e-013 6.45851e-013 78.0219 25.8402 -8.87186 -19.9616 -12.9635 38.5867 -0.191746 12.3801 1.76778 -9.55322e-010 -5.33026e-010 4.98724e-010 -1.64655e-009 -9.1517e-010 8.86486e-010 -9.55318e-010 -5.33029e-010 4.98705e-010 7.73091 5.47488 0.417314 -9.55319e-010 -5.33029e-010 4.98721e-010 2.90554 0.965183 0.102902 -9.55313e-010 -5.33031e-010 4.98713e-010 10.2786 0.731801 0.0259123 -9.55332e-010 -5.3303e-010 4.98717e-010 2.22167 -0.733487 -0.20892 -8.20813e-014 -7.65715e-013 6.45603e-013 -30.7719 -24.9321 29.4532 -12.782 -57.3807 129.76 0.048299 -6.25963 0.883286 6.24542e-010 -2.79224e-010 -3.428e-009 1.11951e-009 -4.99293e-010 -5.93459e-009 6.24536e-010 -2.79228e-010 -3.42799e-009 -7.73091 5.47488 -0.417314 6.24542e-010 -2.79233e-010 -3.428e-009 -2.90554 0.965183 -0.102902 6.24535e-010 -2.79233e-010 -3.428e-009 -10.2786 0.731801 -0.0259123 6.24551e-010 -2.79231e-010 -3.42801e-009 -2.22167 -0.733487 0.20892 -2.03217e-016 0 -3.88251e-019 5.90757 -33.763 -1.71353 -0.420346 44.2544 0.674926 -1.54502 -13.8474 -3.15321 2.03217e-016 0 3.88251e-019 1.85664 -38.2719 0.827343 2.48793 72.0903 -2.701 -2.67685 -5.25029 -11.9433 
-7.92857 79.5178 -11.978 -4.59602 5.49414 75.0953 10.5744 18.2213 4.02372 -2.475 -6.87172 1.44723 -0.989846 15.4756 -3.55031 1.08996 -16.2203 -6.98704 -0 0 0 -0 0 0 -7.46833e-014 -7.77751e-013 5.13927e-013 77.3887 25.6503 -8.35601 -19.0482 -11.9104 36.2865 -0.222739 13.7491 1.96639 -7.65713e-010 -1.19814e-009 1.01299e-009 -1.31088e-009 -2.06564e-009 1.77083e-009 -7.65709e-010 -1.19814e-009 1.01297e-009 7.73091 5.47488 0.417314 -7.65711e-010 -1.19814e-009 1.01299e-009 2.90554 0.965183 0.102902 -7.65706e-010 -1.19814e-009 1.01298e-009 10.2786 0.731801 0.0259123 -7.65722e-010 -1.19814e-009 1.01298e-009 2.22167 -0.733487 -0.20892 -7.47336e-014 -7.7774e-013 5.13674e-013 -30.7999 -25.3833 29.08 -13.156 -57.2232 129.024 0.0571189 -6.77352 0.956506 1.62217e-009 -2.52783e-010 -3.51721e-009 2.84528e-009 -4.56464e-010 -6.08256e-009 1.62217e-009 -2.52785e-010 -3.5172e-009 -7.73091 5.47488 -0.417314 1.62217e-009 -2.52791e-010 -3.51721e-009 -2.90554 0.965183 -0.102902 1.62217e-009 -2.52791e-010 -3.51721e-009 -10.2786 0.731801 -0.0259123 1.62218e-009 -2.52789e-010 -3.51722e-009 -2.22167 -0.733487 0.20892 -2.03217e-016 0 -3.88251e-019 7.29545 -32.5459 -1.67123 -0.40479 43.7658 0.637685 -1.65095 -14.2746 -3.4423 2.03217e-016 0 3.88251e-019 2.66003 -40.6468 -0.152185 4.4408 78.5933 -4.64515 -2.47089 -5.12949 -10.4753 
